# xmcd
#
# Track frame offsets:
#	150
#	18499
#	38689
#	52939
#	70576
#	85939
#	103386
#	121727
#	139629
#	153945
#	166778
#	185127
#	205317
#	219567
#	237204
#	252567
#	270014
#	288355
#	306257
#	320573
#
# Disc length: 4443 seconds
#
# Revision: 0
# Processed by: cddbd v1.5.2PL0 Copyright (c) Steve Scherf et al.
# Submitted via: audiograbber 1.83.01
#
DISCID=16115914
DTITLE=Country - thmc0802
DYEAR=2008
DGENRE=Country
TTITLE0=Various Artist - Vocal
TTITLE1=Various Artist - Vocal
TTITLE2=Various Artist - Vocal
TTITLE3=Various Artist - Vocal
TTITLE4=Various Artist - Vocal
TTITLE5=Various Artist - Vocal
TTITLE6=Various Artist - Vocal
TTITLE7=Various Artist - Vocal
TTITLE8=Various Artist - Vocal
TTITLE9=Various Artist - vocal
TTITLE10=Rascal Flatts - Winning At A Losing Game
TTITLE11=Paisley, Brad - Letter To Me
TTITLE12=Kieth, Toby - Get My Dring On
TTITLE13=Antebellum, Lady - Love Don't Live Here
TTITLE14=Wilson, Gertchen - You Don't Have To Go Home
TTITLE15=Brooks and Dunn - God Must Be Busy
TTITLE16=McBride, Martina - For These Times
TTITLE17=Gill, Vince - How Lonely Looks
TTITLE18=Covington, Bucky - It's Good To Be Us
TTITLE19=Chestnutt, Mark - Rollin' With The Flow
EXTD=
EXTT0=
EXTT1=
EXTT2=
EXTT3=
EXTT4=
EXTT5=
EXTT6=
EXTT7=
EXTT8=
EXTT9=
EXTT10=
EXTT11=
EXTT12=
EXTT13=
EXTT14=
EXTT15=
EXTT16=
EXTT17=
EXTT18=
EXTT19=
PLAYORDER=
